<svg width="24" height="24" viewBox="0 0 24 24" fill="none" xmlns="http://www.w3.org/2000/svg">
<g clip-path="url(#clip0_385_1380)">
<path d="M20 6.16666H4C2.89543 6.16666 2 7.21133 2 8.49999V20.1667C2 21.4553 2.89543 22.5 4 22.5H20C21.1046 22.5 22 21.4553 22 20.1667V8.49999C22 7.21133 21.1046 6.16666 20 6.16666Z" stroke="#398414" stroke-width="2" stroke-linecap="round" stroke-linejoin="round"/>
<path d="M16 22.5V3.83333C16 3.21449 15.7893 2.621 15.4142 2.18342C15.0391 1.74583 14.5304 1.5 14 1.5H10C9.46957 1.5 8.96086 1.74583 8.58579 2.18342C8.21071 2.621 8 3.21449 8 3.83333V22.5" stroke="#398414" stroke-width="2" stroke-linecap="round" stroke-linejoin="round"/>
</g>
<defs>
<clipPath id="clip0_385_1380">
<rect width="24" height="24" fill="white"/>
</clipPath>
</defs>
</svg>
