<svg width="25" height="25" viewBox="0 0 25 25" fill="none" xmlns="http://www.w3.org/2000/svg">
<g clip-path="url(#clip0_509_1008)">
<path d="M21.8887 10.8076C21.8887 17.8076 12.8887 23.8076 12.8887 23.8076C12.8887 23.8076 3.88867 17.8076 3.88867 10.8076C3.88867 8.42067 4.83688 6.13148 6.52471 4.44366C8.21254 2.75583 10.5017 1.80762 12.8887 1.80762C15.2756 1.80762 17.5648 2.75583 19.2526 4.44366C20.9405 6.13148 21.8887 8.42067 21.8887 10.8076Z" stroke="#398414" stroke-width="2" stroke-linecap="round" stroke-linejoin="round"/>
<path d="M12.8887 13.8076C14.5455 13.8076 15.8887 12.4645 15.8887 10.8076C15.8887 9.15076 14.5455 7.80762 12.8887 7.80762C11.2318 7.80762 9.88867 9.15076 9.88867 10.8076C9.88867 12.4645 11.2318 13.8076 12.8887 13.8076Z" stroke="#398414" stroke-width="2" stroke-linecap="round" stroke-linejoin="round"/>
</g>
<defs>
<clipPath id="clip0_509_1008">
<rect width="24" height="24" fill="white" transform="translate(0.888672 0.807617)"/>
</clipPath>
</defs>
</svg>
