<svg width="16" height="16" viewBox="0 0 16 16" fill="none" xmlns="http://www.w3.org/2000/svg">
<g clip-path="url(#clip0_351_318)">
<path d="M5.99992 14.6668C6.36811 14.6668 6.66659 14.3684 6.66659 14.0002C6.66659 13.632 6.36811 13.3335 5.99992 13.3335C5.63173 13.3335 5.33325 13.632 5.33325 14.0002C5.33325 14.3684 5.63173 14.6668 5.99992 14.6668Z" stroke="#398414" stroke-width="2" stroke-linecap="round" stroke-linejoin="round"/>
<path d="M13.3334 14.6668C13.7016 14.6668 14.0001 14.3684 14.0001 14.0002C14.0001 13.632 13.7016 13.3335 13.3334 13.3335C12.9652 13.3335 12.6667 13.632 12.6667 14.0002C12.6667 14.3684 12.9652 14.6668 13.3334 14.6668Z" stroke="#398414" stroke-width="2" stroke-linecap="round" stroke-linejoin="round"/>
<path d="M0.666748 0.666504H3.33341L5.12008 9.59317C5.18104 9.9001 5.34802 10.1758 5.59178 10.372C5.83554 10.5683 6.14055 10.6725 6.45342 10.6665H12.9334C13.2463 10.6725 13.5513 10.5683 13.7951 10.372C14.0388 10.1758 14.2058 9.9001 14.2667 9.59317L15.3334 3.99984H4.00008" stroke="#398414" stroke-width="2" stroke-linecap="round" stroke-linejoin="round"/>
</g>
<defs>
<clipPath id="clip0_351_318">
<rect width="16" height="16" fill="white"/>
</clipPath>
</defs>
</svg>
