<svg width="25" height="25" viewBox="0 0 25 25" fill="none" xmlns="http://www.w3.org/2000/svg">
<path d="M15.5888 6.66204C15.4055 6.84897 15.3029 7.10029 15.3029 7.36204C15.3029 7.62379 15.4055 7.87511 15.5888 8.06204L17.1888 9.66204C17.3757 9.84527 17.627 9.9479 17.8888 9.9479C18.1505 9.9479 18.4018 9.84527 18.5888 9.66204L22.3588 5.89204C22.8616 7.00323 23.0139 8.24127 22.7952 9.44119C22.5766 10.6411 21.9975 11.7459 21.135 12.6083C20.2726 13.4708 19.1678 14.0499 17.9679 14.2685C16.768 14.4871 15.53 14.3349 14.4188 13.832L7.50877 20.742C7.11095 21.1399 6.57138 21.3634 6.00877 21.3634C5.44616 21.3634 4.9066 21.1399 4.50877 20.742C4.11095 20.3442 3.88745 19.8046 3.88745 19.242C3.88745 18.6794 4.11095 18.1399 4.50877 17.742L11.4188 10.832C10.9159 9.72085 10.7637 8.48281 10.9823 7.2829C11.2009 6.08298 11.7801 4.9782 12.6425 4.11576C13.5049 3.25333 14.6097 2.67421 15.8096 2.45558C17.0095 2.23696 18.2476 2.38921 19.3588 2.89204L15.5988 6.65204L15.5888 6.66204Z" stroke="#398414" stroke-width="2" stroke-linecap="round" stroke-linejoin="round"/>
</svg>
